<svg xmlns="http://www.w3.org/2000/svg" direction="ltr" width="167.4108115421451" height="162.0830078125" viewBox="17.1953125 95.1796875 167.4108115421451 162.0830078125" stroke-linecap="round" stroke-linejoin="round" data-color-mode="light" class="tl-container tl-theme__force-sRGB tl-theme__light" style="background-color: rgb(249, 250, 251);"><defs/><g transform="matrix(1, 0, 0, 1, 49.1953, 127.1797)" opacity="1"><path stroke-width="3.5" d="M 7.5081 0.7982 L 95.2691 -0.1486 Q 102.2691 -0.1486 102.2691 6.8514 L 103.7875 90.7786 Q 103.7875 97.7786 96.7875 97.7786 L 6.2878 97.5665 Q -0.7122 97.5665 -0.7122 90.5665 L 0.5081 7.7982 Q 0.5081 0.7982 7.5081 0.7982 M 8.0976 1.0148 L 95.3932 -0.4843 Q 102.3932 -0.4843 102.3932 6.5157 L 103.2455 91.5406 Q 103.2455 98.5406 96.2455 98.5406 L 8.0424 98.8172 Q 1.0424 98.8172 1.0424 91.8172 L 1.0976 8.0148 Q 1.0976 1.0148 8.0976 1.0148" fill="none" stroke="#1d1d1d"/></g></svg>