<svg xmlns="http://www.w3.org/2000/svg" width="400" height="600" viewBox="0 0 400 600">
    <defs>
        <linearGradient id="boardGradient" x1="0" y1="0" x2="0" y2="1">
            <stop offset="0%" stop-color="#4286f4" />
            <stop offset="60%" stop-color="#0a50c2" />
            <stop offset="100%" stop-color="#3023ae" />
        </linearGradient>
        <linearGradient id="pencilBody" x1="0" y1="0" x2="1" y2="0">
            <stop offset="0%" stop-color="#ffe181" />
            <stop offset="60%" stop-color="#ffc043" />
            <stop offset="100%" stop-color="r#f0a020" />
        </linearGradient>
        <linearGradient id="pencilEraser" x1="0" y1="0" x2="1" y2="0">
            <stop offset="0%" stop-color="#ffd1dc" />
            <stop offset="100%" stop-color="#f38aa4" />
        </linearGradient>
        <linearGradient id="pencilFerrule" x1="0" y1="0" x2="1" y2="0">
            <stop offset="0%" stop-color="#fdfdfd" />
            <stop offset="100%" stop-color="#c7d3e7" />
        </linearGradient>
        <linearGradient id="pencilWood" x1="0" y1="0" x2="1" y2="1">
            <stop offset="0%" stop-color="#f7d8aa" />
            <stop offset="100%" stop-color="#d8a15f" />
        </linearGradient>
    </defs>
    <rect x="40" y="60" width="320" height="480" rx="28" fill="url(#boardGradient)" stroke="#0a50c2" stroke-width="4" />
    <g fill="#f8fbff">
        <circle cx="90" cy="190" r="8" />
        <rect x="115" y="180" width="200" height="20" rx="6" />
        <circle cx="90" cy="260" r="8" />
        <rect x="115" y="250" width="200" height="20" rx="6" />
        <circle cx="90" cy="330" r="8" />
        <rect x="115" y="320" width="200" height="20" rx="6" />
        <circle cx="90" cy="400" r="8" />
        <rect x="115" y="390" width="200" height="20" rx="6" />
    </g>
    <g transform="rotate(-12 310 470)">
        <rect x="220" y="418" width="200" height="28" rx="12" fill="url(#pencilBody)" stroke="#d4881d"
            stroke-width="2" />
        <rect x="220" y="418" width="22" height="28" rx="10" fill="url(#pencilEraser)" stroke="#d66d8d"
            stroke-width="1.5" />
        <rect x="240" y="418" width="6" height="28" fill="rgba(255,255,255,0.35)" />
        <polygon points="420,432 448,432 436,462 408,462" fill="url(#pencilWood)" stroke="#b98142" stroke-width="1.5" />
        <polygon points="448,432 458,447 436,462" fill="#3b3631" />
        <path d="M260 418 L400 418 C405 418 410 420 412 424 L252 424 C248 424 245 422 244 419 Z"
            fill="rgba(255,255,255,0.18)" />
    </g>
</svg>
